# xmcd
#
# Track frame offsets:
#	150
#	12480
#	29644
#	45470
#	68540
#	87877
#	103202
#	121731
#	133907
#	148006
#	162077
#	177207
#	194120
#	206595
#	224225
#	238637
#	262359
#	275326
#	289813
#	312371
#
# Disc length: 4464 seconds
#
# Revision: 2
# Processed by: cddbd v1.5PL3 Copyright (c) Steve Scherf et al.
# Submitted via: EasyCDDAExtractor 6.2.0.3
#
DISCID=40116e14
DTITLE=Lucinda Williams - Sweet Old World Demos and Bonus Tracks
DYEAR=1900
DGENRE=
TTITLE0=Six Blocks Away
TTITLE1=Something About What Happens When We Talk
TTITLE2=Sidewalks Of The City
TTITLE3=Hot Blood
TTITLE4=Little Angel, Little Brother
TTITLE5=What You Don't Know
TTITLE6=Sweet Old World
TTITLE7=Prove My Love
TTITLE8=Drivin' On A Dead End Street
TTITLE9=Lines Around Your Eyes
TTITLE10=Pineola
TTITLE11=Which Will
TTITLE12=Dark Side Of Life
TTITLE13=Pancakes
TTITLE14=Little Red Light
TTITLE15=Here In California
TTITLE16=You Don't Have To Go Very Far
TTITLE17=Come To Me Baby
TTITLE18=Positively 4th Street
TTITLE19=Still I Long For Your Kiss
EXTD=
EXTT0=
EXTT1=
EXTT2=
EXTT3=
EXTT4=
EXTT5=
EXTT6=
EXTT7=
EXTT8=
EXTT9=
EXTT10=
EXTT11=
EXTT12=
EXTT13=
EXTT14=
EXTT15=
EXTT16=
EXTT17=
EXTT18=
EXTT19=
PLAYORDER=
